<svg id="Layer_1" data-name="Layer 1" xmlns="http://www.w3.org/2000/svg" xmlns:xlink="http://www.w3.org/1999/xlink" viewBox="0 0 150 150"><defs><style>.cls-1{opacity:0.85;fill:url(#linear-gradient);}.cls-2{fill:url(#linear-gradient-2);}.cls-3{fill:#221f1f;}.cls-4{fill:#aa5025;}.cls-5{fill:#178756;}</style><linearGradient id="linear-gradient" x1="840.55" y1="95.85" x2="840.55" y2="43.55" gradientTransform="translate(-763.95)" gradientUnits="userSpaceOnUse"><stop offset="0.09" stop-color="#a5519e"/><stop offset="0.23" stop-color="#ee4977"/><stop offset="0.37" stop-color="#f47f33"/><stop offset="0.38" stop-color="#f48033"/><stop offset="0.45" stop-color="#f6a237"/><stop offset="0.53" stop-color="#f8bd3b"/><stop offset="0.62" stop-color="#f9d33e"/><stop offset="0.72" stop-color="#fae240"/><stop offset="0.83" stop-color="#fbeb41"/><stop offset="1" stop-color="#fbee41"/></linearGradient><linearGradient id="linear-gradient-2" x1="75" y1="111.57" x2="75" y2="87.32" gradientUnits="userSpaceOnUse"><stop offset="0.28" stop-color="#39bdb8"/><stop offset="0.99" stop-color="#2d57a6"/></linearGradient></defs><title>Artboard 1</title><path class="cls-1" d="M112.55,59a49.63,49.63,0,0,0-71.9,0A51.93,51.93,0,0,0,25.77,95.34h0v.51H127.44v-.44A52,52,0,0,0,112.55,59Z"/><path class="cls-2" d="M46.19,96.85a49.48,49.48,0,0,0-14.55,2c-.64.19-4,1.49-8.29,2.69a41.08,41.08,0,0,1-4.82,1.09,37.41,37.41,0,0,1-4.77.47,21.94,21.94,0,0,1-8-.8A17.41,17.41,0,0,1,.58,99.6a35.44,35.44,0,0,0,4.85.54,33.39,33.39,0,0,0,6.46-.34,31.36,31.36,0,0,0,11.75-4.55c6-3.75,12.45-4.65,19.28-3.6a4.39,4.39,0,0,0,1.4,0,4.62,4.62,0,0,0,1.55-.55c1-.56,2.16-.91,3.21-1.45a30.22,30.22,0,0,1,21.24-.76,27.39,27.39,0,0,1,6.54,3.41q-5.74.15-11.74.46c-4.17.21-8.24.49-12.21.8.57.23,1.15-.15,1.73-.24a37.71,37.71,0,0,1,15.87,1.46A6.8,6.8,0,0,0,73,95.1a5.91,5.91,0,0,0,1.4-.29c9.07-3,22.43-4.11,22.43-4.11a81,81,0,0,1,9.56-.37c6.26.17,13,.34,18.18,3.56.58.36,2.23,1.45,5.52,3.63,1.45,1,1.7,1.17,2.35,1.56a33.29,33.29,0,0,0,5.88,2.79,50.19,50.19,0,0,0,11.13,2.61,33.5,33.5,0,0,1-6.1.9,27.13,27.13,0,0,1-7.78-.51,35,35,0,0,1-10.07-4.42,22.63,22.63,0,0,0-3.18-1.74,23.19,23.19,0,0,0-2.24-.86A32.41,32.41,0,0,0,109,96a30.88,30.88,0,0,0-3.75.31,37.54,37.54,0,0,1,4.27.94c4.39,1.26,7.19,3,10.63,4.91a97.91,97.91,0,0,0,10.39,5.35,47.2,47.2,0,0,0,12.56,3.24,27.27,27.27,0,0,1-8.71.8,30.86,30.86,0,0,1-6.4-1.24c-5-1.31-6.7-2.6-15.2-5.5-1-.34-1.46-.5-2.17-.73a100.41,100.41,0,0,0-19.41-3.77c-1.39-.13-3.09-.08-5.19-.11a6.09,6.09,0,0,0-1.57.13,75.68,75.68,0,0,0,11.24,4.48A68,68,0,0,0,105.79,107a71,71,0,0,0,9.75.75,33,33,0,0,1-6.93,1.5,41.37,41.37,0,0,1-15-1.5c-2.6-.65-2.38-.79-5.25-1.5a74.44,74.44,0,0,0-10.63-1.79c-12.74-1.32-19.12-2-24.24-1.38a68.51,68.51,0,0,0-11.71,2.43c-4.5,1.34-8.84,3.18-13.41,4.3a29.85,29.85,0,0,1-19-1.11,4,4,0,0,1-.46-.23c-.07,0-.11-.13-.16-.19a40.91,40.91,0,0,0,18.92-2.78c1.55-.65,2.73-1.36,6.93-3.37C39.47,99.79,43.52,98,46.19,96.85Z"/><path class="cls-3" d="M89,91.79c.16-.22,1.66.4,4.67,1.64a6.73,6.73,0,0,0,3,.56c.62,0,1.3-.18,1.31-.38s-.63-.23-1.31-.75-1.07-1.12-.94-1.3,1.84,1.19,4.31,1.49,4.52-.66,4.49-.94c0-.13-.58-.07-1.71-.37-.92-.24-2.08-.7-2-.93s2,.32,3.74-.75c.75-.47,1.44-1.25,1.29-1.5s-.56-.06-.91,0c-2.16.36-4.34-.7-4.3-.93a13.07,13.07,0,0,0,3.18-.38,6.56,6.56,0,0,0,2.43-1.5c.51-.49,1.07-1,.93-1.3-.23-.46-2.12.43-5.05.56a8,8,0,0,1-3.95-.56,15.8,15.8,0,0,0,2.17-.46c1.29-.52,2.3-1.53,2.16-1.81s-2,.73-4.84.53c-.77-.06-1.76-.22-1.76-.41s1-.28,2.1-.59c2.28-.65,4.28-2.15,4.12-2.57s-2.31.47-6.24.6a13.51,13.51,0,0,1-5.37-.53c-2.88-1-4.75-3.23-4.55-3.52s1.66.79,4.52,1.45c2,.45,3.7.33,3.74.09s-1-.3-2.06-1.21c-.73-.62-1.37-1.49-1.21-1.68s1.81,1.41,4.34,1.82,4.78-.53,4.75-.88c0-.08-.15-.12-1.12-.37a9.15,9.15,0,0,1-2.43-.75c0-.26,1.62-.18,3.37-.94,2-.88,3.63-2.66,3.36-3.18s-1.58.29-4.3.38a9.65,9.65,0,0,1-4.25-.53,11.65,11.65,0,0,0,3.31-.59c1-.41,2.17-1.16,2.06-1.5s-1.68.1-4.3,0a12.75,12.75,0,0,1-5-.93c-1.07-.54-2.38-1.5-2.23-1.87.32-.77,6.12,2.43,9.92,0,1-.67,2-1.82,1.87-2.06s-.65.14-1.89.37a10.84,10.84,0,0,1-2.41.19,5,5,0,0,1-2.44-.56,9.88,9.88,0,0,0,2.81-.38c1-.4,2-1.18,1.87-1.49s-1,0-2.62,0a11.63,11.63,0,0,1-3.93-.75c-1.54-.61-2.92-1.62-2.8-1.87S90,58.81,92,59a10.51,10.51,0,0,0,5-.56,7.6,7.6,0,0,0,2.62-1.68c.57-.58,1.27-1.49,1.1-1.69s-.42.05-.75.19c-1.61.67-3.41.85-3.53.56s.38-.35,1-1.12c.27-.32,1-1.23.85-1.5s-1.4.6-3.37.94c-1.72.3-3.16,0-3.18-.19s2-.23,3.18-1.68c.3-.36.7-1,.56-1.13s-.49.08-.75.19a9.33,9.33,0,0,1-2.8.56A9.81,9.81,0,0,1,88,51.53c-1.07-.31-2.72-1-2.64-1.31s3.15.52,6.73-.75A7.91,7.91,0,0,0,94.75,48c1.23-1.08,2.19-2.64,1.87-3s-1,.33-2.65.74a11.09,11.09,0,0,1-3.17.33c2-1.35,2.35-1.83,2.27-2-.19-.37-2.3.78-5.21.48-1.83-.18-3.34-.89-3.29-1.12s1.57.22,3.82-.3a6.44,6.44,0,0,0,3.55-2c.21-.26.46-.66.38-.75s-.56.3-1.27.53-1.79.21-1.85,0,1.53-.49,2.56-1.84c.9-1.18,1-2.85.74-3-.1-.06-.23.11-.56.37A5.24,5.24,0,0,1,89.1,37.7s0-.09.12-.19c.53-.71.68-1.77.48-1.88s-.31.16-.56.38a5.32,5.32,0,0,1-3.8,1c-.33,0-1.35-.18-1.4-.56s1.77-.7,3.5-2.19a7.68,7.68,0,0,0,2.33-3.74c.42-1.64.18-3.35-.16-3.41s-.32.64-1,1.45S86.69,30,86.5,29.81s.87-1,1-2.43A4,4,0,0,0,87.07,25s0,.1,0,.14a6.34,6.34,0,0,1-1.64,2.6,5.6,5.6,0,0,1-3.26,2.15c-.25,0-1.15.16-1.31-.18-.24-.5,1.45-1.21,2.36-3a6.32,6.32,0,0,0,.48-3.78A7.39,7.39,0,0,0,81.85,19s0,0,0,0c0,.51-1.92,3.44-2.83,3.06-.49-.21-.61-1.37-.35-2.21S79.55,19,80,17.86A3.59,3.59,0,0,0,80.16,16c-.15-.75-.6-1.55-.82-1.5s-.1.13-.12.2c-.29,1-1.51,1.93-1.69,1.81s0-.22,0-.32c.4-1.29,0-5.27-.31-4a3.07,3.07,0,0,1-1.4,1.88,51.15,51.15,0,0,1-2-4.72c-.2-.89-1.46,3.33-.86,4.72,0,.08.12.33,0,.41-.28.24-2.29-1.06-2.38-1.12s-.17-.11-.25-.09c-.39.13-.49,2.06.25,3.64.59,1.26,1.3,1.59,1.31,2.62,0,.75-.36,1.66-.82,1.72-.82.09-2.72-2.42-3.13-2.66-.21-.13,0,2.14,1.6,4.75.41.68.78,1.36.51,1.81a1,1,0,0,1-.91.42c-1.85-1.23-2.18-2.46-3.12-3.66-.4-.49-.85,1.88-.53,3.19s1.29,2.5,1,2.8a.32.32,0,0,1-.25.06C65,27.9,64,26.77,63.67,27s-.07,1.15.33,1.9a4.63,4.63,0,0,0,2,1.87c1.85,1,3.41.43,3.5.82s-1.63,1.52-3.5,1.51A6.1,6.1,0,0,1,62.72,32c-1.09-.76-1.39-1.53-1.64-1.42-.41.18-.18,2.37.94,4.11A7.92,7.92,0,0,0,64.26,37c1.19.79,2.1,1,2.06,1.12s-1.94.17-3.74-.75c-1.6-.81-2.59-2-2.81-1.87s0,.32.19.75c.39,1,.83,1.41.75,1.49s-.9-.38-1.69-1.12c-1-1-1.4-1.78-1.68-1.68s-.19.49-.19.75a5.21,5.21,0,0,0,.94,2.8A8.37,8.37,0,0,0,60,40.69a8.08,8.08,0,0,0,3.74,1.68,5.78,5.78,0,0,1-1.87,0c-1.44-.24-2.23-1-2.35-.82s.84,1.51,2.35,2.32a6.66,6.66,0,0,0,2.81.74,17.66,17.66,0,0,0,2.8-.37c.08.18-1.22,1.23-3,1.5s-2.85-.34-3,0,.57.92,1.31,1.31c1.39.72,2.75.38,2.78.56s-1.22.73-3,.93a17,17,0,0,1-6.73-.74c-.77-.28-1.37-.56-1.5-.38s.74,1.45,1.87,2.25c.93.65,1.72.83,1.68.93A9.35,9.35,0,0,1,54.74,50c-1.52-.44-2.06-.78-2.24-.56s.55,1.6,1.5,2.43A6.32,6.32,0,0,0,55.87,53c2.49,1,4.45.62,4.49.94s-1.48.9-3.18.93c-1.53,0-2.34-.38-2.43-.18-.17.35,2,2.37,4.86,2.8,2.45.37,4.32-.6,4.49-.19S63,58.52,62,59a10.34,10.34,0,0,1-3.55.93c-2.77.33-4.17-.06-4.3.38s1.05,1.24,2.05,1.68c1.73.76,3.16.5,3.18.75s-1.36.62-2.62.75a8.49,8.49,0,0,1-2,0c-1.7-.22-2.61-.84-2.81-.56s.37.88.56,1.12c.87,1.05,1.83,1.35,1.78,1.5s-1.76,0-3.55-.75c-.72-.28-1.18-.53-1.31-.38s.37,1.1.93,1.69c1.81,1.88,4.51,1.72,4.49,2.05s-1.69.52-3.55.38-2.9-.58-3-.38,1.47,1.52,3.18,2.25c5.57,2.37,11.73-1,12-.38.12.33-1.48,1.46-3.37,2.06-2.59.82-4.82.38-4.86.75s1.29.69,1.49.75A12.81,12.81,0,0,0,60,74c0,.21-3.91,2-7.7,1-.54-.15-1.28-.41-1.4-.2S52,76.5,53.56,77.24c4,2,8.81.1,9,.65.06.22-.67.71-1.8,1.14-5.42,2-12.33-.43-14-1.31-.17-.08-.62-.32-.75-.18s.56,1.51,1.5,2.43C49,81.49,50.68,81.81,50.62,82s-3.23-.31-3.56-.38c-1-.19-1.26-.28-1.31-.18-.17.32,2.1,2.44,5,3.17,2.73.68,4.92-.18,5,.16s-1.41,1.13-3.18,1.29c-2.27.2-3.94-1-4.17-.65s.42.91,1,1.45c2.46,2.12,5.71,2,5.68,2.32s-1.29.27-2,.28c-1.18,0-1.77-.14-1.82,0S52.65,90.58,54,91c4.62,1.45,9.34-2.21,9.76-1.53.21.34-.9,1.47-1.87,2.14a10.49,10.49,0,0,1-6.58,1.45c-.61-.08-1.29-.22-1.35,0S55,94,55.86,94.37c2,1,3.46,1,3.44,1.21s-1.93.46-4,.1a14.91,14.91,0,0,1-3.13-.94c-1.72-.73-2.67-1.51-2.85-1.31s.65,1.2.75,1.31a15.46,15.46,0,0,0,2.29,1.92c-.08.2-2.86-.38-6.16-2-1.88-.9-2.69-1.53-2.92-1.29-.37.4,1,2.67,2.86,4.33,1.16,1,2.21,1.56,2.11,1.76-.17.36-3.62-1.14-3.85-.7-.14.27.91,1.14,1.89,1.75,2.55,1.6,4.79,1.59,4.76,2s-1.61.71-3.23.46c-1.4-.21-2.25-.8-2.43-.56s.58,1.17,1.13,1.69a7,7,0,0,0,2.43,1.49c8.52-2.69,14.3-2,18.06-.83,2.67.84,9.33,3.51,14.25,3.12a13.46,13.46,0,0,1,3.23,0,38.54,38.54,0,0,1,5.72,1.52c1.2.38,2.26.72,2.47.39s-.68-1.17-.48-1.42,1.39.51,3,1c2.23.75,4.32.65,4.38.39s-.65-.32-1.72-1.15c-.3-.23-1-.79-.93-.94s1.68.75,4,1.13c1.84.32,3.74.19,3.81-.19s-2.19-1.06-2.11-1.36,1.64.17,3.82-.16c1.19-.18,2.31-.55,2.28-.76s-2.63-.06-2.77-.65,1.62-.86,3.09-2.56c1-1.15,1.66-2.67,1.31-3s-1.35.74-3.56,1.31c-1.64.42-3.15.36-3.18.18a13.59,13.59,0,0,0,2.62-1.12c1.17-.78,2.1-2,1.87-2.33s-1.25.39-3.55.83a7.73,7.73,0,0,1-3.37.19c0-.09.45-.15,1-.55.72-.53,1.25-1.44,1.07-1.69s-1.37.6-3.37,1.12a10.91,10.91,0,0,1-2.8.38c-2.66,0-4.74-1.31-4.68-1.5s1.82.72,3.74,0c1.12-.42,2-1.28,1.87-1.5s-.76.15-1.87.19a7.08,7.08,0,0,1-2.43-.37C91,94.51,88.76,92.13,89,91.79Z"/><path class="cls-4" d="M74.94,40.1a4.48,4.48,0,0,0-1,.95l-.23,5.52a1.81,1.81,0,0,0,.72.78l.39.14Q74.92,43.77,74.94,40.1Z"/><path class="cls-4" d="M74.71,64.91q0-3.73.07-7.51l-.53-.24-.09,0a1.55,1.55,0,0,0-.87.84l-.2,4.67A6.94,6.94,0,0,0,74.71,64.91Z"/><path class="cls-4" d="M75.62,65.54l.85.14q-.07-3.81-.16-7.58l-1-.45c0,2.63,0,4.71,0,5s0,1.74,0,2.73Z"/><path class="cls-4" d="M75.55,86.64c.16,0,.21.13.57.31s.49.22.79.34q-.12-5.66-.23-11.34a5.17,5.17,0,0,1-1.45-.87c0,.26-.06.49-.08.67-.19,1.88-.06,2.86-.16,5.83-.06,1.79-.12,1.89-.15,1.89a12.1,12.1,0,0,1-.33-2.28c-.2-2.3-.1-3.17-.29-5.13,0-.51-.13-1.22-.27-2.06a.54.54,0,0,0-.24-.4.45.45,0,0,0-.25-.06c-.36,0-.6.49-.7.68a1.86,1.86,0,0,0-.16.44l-.48,11.7A3.19,3.19,0,0,0,73.85,89c.79.32,1.5.57,2.15.78-1.41-.91-2.07-2-1.79-2.56A1.3,1.3,0,0,1,75.55,86.64Z"/><path class="cls-4" d="M76.14,35.11a1.19,1.19,0,0,0,.46-.24c-.09-1.91-.19-3.83-.28-5.73l-.06-.08L76.17,29c0,1,0,1.93-.07,3.77-.06,1.52-.12,1.6-.15,1.6a8.69,8.69,0,0,1-.33-1.92c-.2-1.95-.1-2.68-.29-4.35v0a5.77,5.77,0,0,0-.72-.57l-.36,7.27C75,34.89,75.75,35,76.14,35.11Z"/><path class="cls-4" d="M77.13,98.31a5.86,5.86,0,0,1-2.27,1.25c-.35.09-1.16.27-1.31,0s.12-.42.56-1.12a4.81,4.81,0,0,0,.74-2.4c-.17-.28-1.28.77-3.2,1.59l-.33,8a5.14,5.14,0,0,1,3,0,5.2,5.2,0,0,1,3,2.55c0-2,0-4.1-.09-6.16C77.19,100.74,77.16,99.53,77.13,98.31Z"/><path class="cls-4" d="M77.86,65.91c-.1-2.41-.19-4.83-.29-7.24l-.36-.16c.05,2.06.1,3.82.2,7.33Z"/><path class="cls-4" d="M78.14,72.72a1.35,1.35,0,0,0-.59-.24c.09,4.57.19,10.24.3,15.14l.91.27Q78.44,80.33,78.14,72.72Z"/><path class="cls-4" d="M76.81,39.93a1.51,1.51,0,0,0-1.33-.12c0,2.93,0,3.44,0,6.47v1.39c.59.19,1.17.36,1.7.5Z"/><path class="cls-4" d="M78.19,97.71c0,.84.06,1.41.1,1.64.1.7.23,8.87.23,9h1q-.2-5.83-.38-11.74Z"/><path class="cls-3" d="M6.3,126.1a.45.45,0,0,0,.45.39H8.12v1.82H.68v-1.82H2.07a.42.42,0,0,0,.42-.39v-7.87a.42.42,0,0,0-.42-.39H.68V116H9.42c2.14,0,4.33.55,4.33,3.07,0,2.22-1.77,2.83-3.69,3,1.44.3,2.48.64,2.65,2.28.09.75,0,2.13.49,2.13.23,0,.39-.1.39-.48v-1.62h1.67v1c0,2.29-.73,3.22-3.12,3.22-1.49,0-2.68-.61-2.88-2.16L9,124.13c-.06-.47-.15-1.14-1.22-1.14H6.3Zm0-5H7.53c1.2,0,2.21-.18,2.21-1.73a1.38,1.38,0,0,0-1.48-1.57h-2Z"/><path class="cls-3" d="M21.21,118.8c3.43,0,5.18,2,5.18,5.33H19.8c0,1.67.59,2.63,2.33,2.63a2,2,0,0,0,2.3-1.65h1.85c-.16,2.58-2.81,3.47-5,3.47-3.14,0-5.36-1.48-5.36-4.88C15.92,120.55,18.14,118.8,21.21,118.8Zm-1.37,3.74h2.67c0-.85-.18-2.06-1.3-2.06S19.84,121.69,19.84,122.54Z"/><path class="cls-3" d="M31.66,118.8a2.93,2.93,0,0,1,2.62,1.32l-.18-.66v-2.24c0-.38-.07-.59-.45-.59H32.58v-1.57l5.12-.28v11.57a.38.38,0,0,0,.35.38h1v1.58H34.13v-.93a3.15,3.15,0,0,1-2.76,1.23c-2.9,0-4-2.42-4-5S28.81,118.8,31.66,118.8Zm-.37,5c0,2.35.26,3.09,1.37,3.09,1.37,0,1.49-1.79,1.49-3.13,0-1.09,0-3.26-1.42-3.26C31.59,120.51,31.29,121.47,31.29,123.81Z"/><path class="cls-3" d="M47.43,123.88l-.08.58-1.27,3.85h-3.6l-2.24-7c-.07-.18-.14-.55-.84-.55h-.57v-1.55h5.86v1.55h-.75c-.08,0-.23.08-.23.32,0,0,.13.51,1.29,4.34l.14.77.12-.77a34.27,34.27,0,0,0,1.36-4.4c0-.16-.11-.26-.49-.26h-.71v-1.55h5.63v1.55h-.82A.24.24,0,0,0,50,121c0,.13.2.77,1.32,4.4l.14.78.16-.78c1-3,1.37-4.22,1.37-4.33s0-.33-.35-.33h-.91v-1.55h4.43v1.55h-.62a.76.76,0,0,0-.82.64l-2.33,6.94H48.84s-.44-1.28-1.3-3.85Z"/><path class="cls-3" d="M61.23,128.58c-2.74,0-5.16-1.5-5.16-4.88s2.19-4.9,5.36-4.9c3,0,5.15,1.69,5.15,4.9S64.28,128.58,61.23,128.58Zm.11-1.68c1.14,0,1.35-1.3,1.35-3.18s-.21-3.24-1.33-3.24-1.43,1.37-1.43,3.24S60.18,126.9,61.34,126.9Z"/><path class="cls-3" d="M72.81,128.58c-2.74,0-5.17-1.5-5.17-4.88s2.19-4.9,5.36-4.9c3,0,5.15,1.69,5.15,4.9S75.85,128.58,72.81,128.58Zm.1-1.68c1.14,0,1.36-1.3,1.36-3.18s-.22-3.24-1.34-3.24-1.42,1.37-1.42,3.24S71.76,126.9,72.91,126.9Z"/><path class="cls-3" d="M83.45,118.8a2.92,2.92,0,0,1,2.62,1.32l-.18-.66v-2.24c0-.38-.07-.59-.44-.59H84.38v-1.57l5.11-.28v11.57a.39.39,0,0,0,.36.38h1v1.58H85.93v-.93a3.17,3.17,0,0,1-2.76,1.23c-2.9,0-4-2.42-4-5S80.61,118.8,83.45,118.8Zm-.37,5c0,2.35.27,3.09,1.37,3.09,1.37,0,1.5-1.79,1.5-3.13,0-1.09,0-3.26-1.43-3.26C83.38,120.51,83.08,121.47,83.08,123.81Z"/><path class="cls-3" d="M101.58,115.63a6.34,6.34,0,0,1,3.58,1l.41-.86h1.71v4.88h-1.85c-.45-1.89-1.18-3.1-3.33-3.1-2.64,0-3.08,2.48-3.08,4.67s.58,4.32,3.17,4.32c2,0,3.22-1.06,3.38-3.25h1.92c0,3.5-2.9,5.35-6,5.35a6.29,6.29,0,0,1-6.65-6.46A6.43,6.43,0,0,1,101.58,115.63Z"/><path class="cls-3" d="M113.65,128.58c-2.74,0-5.16-1.5-5.16-4.88s2.19-4.9,5.36-4.9c3,0,5.14,1.69,5.14,4.9S116.7,128.58,113.65,128.58Zm.11-1.68c1.14,0,1.35-1.3,1.35-3.18s-.21-3.24-1.33-3.24-1.43,1.37-1.43,3.24S112.6,126.9,113.76,126.9Z"/><path class="cls-3" d="M120.51,121.1c0-2.14,3-2.32,4.48-2.32,1.82,0,4.35.43,4.35,2.8v4.24c0,.43.16.6.57.6a2,2,0,0,0,.82-.23V128a4.8,4.8,0,0,1-2.69.53,1.72,1.72,0,0,1-2-1.6,3.28,3.28,0,0,1-3,1.6c-1.55,0-3-.78-3-2.53s1.59-2.51,3.15-3a14.65,14.65,0,0,1,2.59-.55V121a1,1,0,0,0-1.2-1,1.59,1.59,0,0,0-1.21.39,1,1,0,0,1,.7,1c0,.89-.91,1.26-1.7,1.26A1.63,1.63,0,0,1,120.51,121.1Zm4,5.32a1.27,1.27,0,0,0,1.23-1.21v-1.37c-.93.14-2,.59-2,1.71A.79.79,0,0,0,124.5,126.42Z"/><path class="cls-3" d="M133.29,128.31h-1.44v-3.38h1.58a3,3,0,0,0,3,1.83c.52,0,1.46-.09,1.46-.82,0-.41-.21-.6-.62-.66l-3.47-.76a2.35,2.35,0,0,1-2.14-2.53c0-2.35,2.12-3.26,4.17-3.26a6.75,6.75,0,0,1,3,.7l.41-.7h1.32v3.33H139a2.64,2.64,0,0,0-2.71-1.65c-.54,0-1.39.14-1.39.83,0,.3.18.45.48.52l3.85.89a2.51,2.51,0,0,1,1.9,2.54c0,2.3-2.4,3.3-4.31,3.3a5.55,5.55,0,0,1-3.24-.89Z"/><path class="cls-3" d="M143.28,126.07v-5.33h-1.73v-1.49c2.19,0,3.44-1.28,3.44-3.65h1.89v3.56h2.29v1.58h-2.29v4.85c0,.66.19.82.87.82a5.62,5.62,0,0,0,1.39-.18v2a8.9,8.9,0,0,1-2.67.31C144.79,128.51,143.28,128,143.28,126.07Z"/><path class="cls-3" d="M12.44,132.17a3.45,3.45,0,0,1,2.37,1l.37-.75h.68v3.06H15.1a2.5,2.5,0,0,0-2.55-2.38c-1.94,0-2.41,1.8-2.41,3.47s.55,3.35,2.5,3.35c1.66,0,2.49-1.28,2.49-2.84H16c0,2.06-1,3.71-3.52,3.71S8.6,139,8.6,136.53C8.6,134.26,10,132.17,12.44,132.17Z"/><path class="cls-3" d="M16.81,140.48v-.7h.62c.12,0,.34-.07.34-.44v-6.51a.26.26,0,0,0-.28-.3h-.76v-.66l2.29-.2V135l-.13.6A2.3,2.3,0,0,1,21,134.31a1.79,1.79,0,0,1,1.92,1.57v3.56a.34.34,0,0,0,.3.34h.67v.7H20.81v-.7h.55a.32.32,0,0,0,.33-.3v-3.32a1,1,0,0,0-1.09-.93A1.52,1.52,0,0,0,19,136.62v2.72c0,.32.12.44.34.44H20v.7Z"/><path class="cls-3" d="M30.55,140.46a2.67,2.67,0,0,1-1,.19c-.75,0-1-.44-1.05-1.09a2.15,2.15,0,0,1-2,1.11,1.57,1.57,0,0,1-1.77-1.6c0-1.11.82-1.65,1.79-2a10.52,10.52,0,0,1,1.94-.45v-.51c0-.81-.63-1.08-1.27-1.08a1.74,1.74,0,0,0-1,.26.61.61,0,0,1,.35.57.68.68,0,0,1-.71.71.76.76,0,0,1-.8-.85c0-1.14,1.46-1.42,2.31-1.42,1,0,2.33.33,2.33,1.56v3.54c0,.33.05.48.35.48a1.37,1.37,0,0,0,.54-.15Zm-3.77-.73a1.59,1.59,0,0,0,1.66-1.59v-.8c-.33,0-2.46.37-2.46,1.51A.81.81,0,0,0,26.78,139.73Z"/><path class="cls-3" d="M31.22,140.48v-.7h.63c.12,0,.34-.07.34-.44V135.5a.27.27,0,0,0-.28-.3h-.76v-.66l2.29-.2v.7l-.13.6a2.19,2.19,0,0,1,2-1.33,1.86,1.86,0,0,1,1.86,1.25,2.09,2.09,0,0,1,1.92-1.25,1.79,1.79,0,0,1,1.92,1.57v3.56a.35.35,0,0,0,.3.34H42v.7H38.93v-.7h.56a.32.32,0,0,0,.32-.3v-3.32a1,1,0,0,0-1.09-.93,1.6,1.6,0,0,0-1.47,1.68v2.53a.35.35,0,0,0,.32.34h.67v.7H35.15v-.7h.55a.31.31,0,0,0,.32-.3v-3.32a1,1,0,0,0-1.08-.93,1.52,1.52,0,0,0-1.5,1.5v2.61c0,.32.12.44.34.44h.64v.7Z"/><path class="cls-3" d="M43.86,140.48H43.2v-7.37a.5.5,0,0,0-.5-.56h-.58v-.65l2.27-.23v3.7a2.09,2.09,0,0,1,1.93-1.06c1.74,0,2.58,1.44,2.58,3.05s-.9,3.29-2.78,3.29a2.11,2.11,0,0,1-1.86-1Zm.48-2.91c0,1.08.32,2.28,1.59,2.28s1.59-1.33,1.59-2.47-.29-2.26-1.53-2.26S44.34,136.45,44.34,137.57Z"/><path class="cls-3" d="M52.83,134.31c2,0,2.82,1.43,2.82,3.32H51.21c0,1.67.84,2.18,1.82,2.18a1.78,1.78,0,0,0,1.78-1.33h.77a2.58,2.58,0,0,1-2.71,2.18,2.88,2.88,0,0,1-3.06-3.16A3,3,0,0,1,52.83,134.31Zm-1.58,2.54h2.93c0-.91-.33-1.77-1.39-1.77A1.59,1.59,0,0,0,51.25,136.85Z"/><path class="cls-3" d="M56.49,134.54l2.29-.21v.95l-.13.66c.44-.78.89-1.61,2-1.61a1.07,1.07,0,0,1,1.21,1.11.78.78,0,0,1-.83.88.62.62,0,0,1-.66-.65,1,1,0,0,1,.29-.63c-1-.06-1.88,1.2-1.88,2.14v2.16c0,.32.12.44.34.44h1.07v.7H56.56v-.7h.63c.12,0,.34-.07.34-.44V135.5a.27.27,0,0,0-.28-.3h-.76Z"/><path class="cls-3" d="M67.25,134.32a3.17,3.17,0,0,1-.11,6.33c-1.93,0-3-1.38-3-3.22A3,3,0,0,1,67.25,134.32Zm-.09,5.6c1.38,0,1.66-1.37,1.66-2.51s-.33-2.34-1.61-2.34-1.65,1.33-1.65,2.42S65.81,139.92,67.16,139.92Z"/><path class="cls-3" d="M71.07,140.48v-.7h.65c.11,0,.34-.07.34-.44V135.2h-.92v-.67h.93V133c0-1,1.06-1.47,2-1.47.72,0,1.62.24,1.62,1.09a.74.74,0,0,1-.77.8.68.68,0,0,1-.46-1.17,1.07,1.07,0,0,0-.36-.07.76.76,0,0,0-.78.75v1.61h1.62v.67H73.31v4.14c0,.32.13.44.36.44h1v.7Z"/><path class="cls-3" d="M81.94,132.17a3.45,3.45,0,0,1,2.37,1l.37-.75h.68v3.06H84.6a2.5,2.5,0,0,0-2.55-2.38c-1.94,0-2.41,1.8-2.41,3.47s.55,3.35,2.51,3.35c1.65,0,2.48-1.28,2.48-2.84h.85c0,2.06-1,3.71-3.52,3.71S78.1,139,78.1,136.53C78.1,134.26,79.5,132.17,81.94,132.17Z"/><path class="cls-3" d="M89.49,134.32a3.17,3.17,0,0,1-.12,6.33c-1.93,0-2.94-1.38-2.94-3.22A3,3,0,0,1,89.49,134.32Zm-.09,5.6c1.37,0,1.66-1.37,1.66-2.51s-.33-2.34-1.62-2.34-1.64,1.33-1.64,2.42S88.05,139.92,89.4,139.92Z"/><path class="cls-3" d="M93.21,140.48v-.7h.64c.12,0,.34-.07.34-.44V135.5a.27.27,0,0,0-.28-.3h-.77v-.66l2.29-.2v.7l-.12.6a2.19,2.19,0,0,1,2-1.33,1.85,1.85,0,0,1,1.86,1.25,2.1,2.1,0,0,1,1.92-1.25,1.77,1.77,0,0,1,1.92,1.57v3.56a.35.35,0,0,0,.3.34H104v.7h-3.09v-.7h.55a.32.32,0,0,0,.33-.3v-3.32a1,1,0,0,0-1.09-.93,1.6,1.6,0,0,0-1.47,1.68v2.53a.35.35,0,0,0,.31.34h.67v.7H97.15v-.7h.55a.31.31,0,0,0,.31-.3v-3.32a1,1,0,0,0-1.07-.93,1.53,1.53,0,0,0-1.51,1.5v2.61c0,.32.13.44.35.44h.64v.7Z"/><path class="cls-3" d="M104.7,140.48v-.7h.63c.12,0,.34-.07.34-.44V135.5a.27.27,0,0,0-.28-.3h-.76v-.66l2.29-.2v.7l-.13.6a2.2,2.2,0,0,1,2-1.33,1.86,1.86,0,0,1,1.86,1.25,2.09,2.09,0,0,1,1.92-1.25,1.79,1.79,0,0,1,1.92,1.57v3.56a.35.35,0,0,0,.3.34h.67v.7h-3.09v-.7H113a.32.32,0,0,0,.32-.3v-3.32a1,1,0,0,0-1.09-.93,1.6,1.6,0,0,0-1.47,1.68v2.53a.35.35,0,0,0,.32.34h.67v.7h-3.09v-.7h.55a.31.31,0,0,0,.32-.3v-3.32a1,1,0,0,0-1.08-.93,1.53,1.53,0,0,0-1.5,1.5v2.61c0,.32.13.44.35.44h.63v.7Z"/><path class="cls-3" d="M119.23,134.31c2,0,2.83,1.43,2.83,3.32h-4.44c0,1.67.83,2.18,1.81,2.18a1.78,1.78,0,0,0,1.78-1.33H122a2.59,2.59,0,0,1-2.72,2.18,2.88,2.88,0,0,1-3-3.16A3,3,0,0,1,119.23,134.31Zm-1.58,2.54h2.94c0-.91-.34-1.77-1.4-1.77A1.59,1.59,0,0,0,117.65,136.85Z"/><path class="cls-3" d="M122.89,134.54l2.29-.21v.95l-.13.66c.44-.78.89-1.61,2-1.61a1.08,1.08,0,0,1,1.22,1.11.78.78,0,0,1-.84.88.62.62,0,0,1-.66-.65,1,1,0,0,1,.29-.63c-1-.06-1.88,1.2-1.88,2.14v2.16c0,.32.13.44.35.44h1.06v.7H123v-.7h.63c.12,0,.34-.07.34-.44V135.5a.27.27,0,0,0-.28-.3h-.76Z"/><path class="cls-3" d="M132,134.32c.94,0,2.14.49,2.14,1.6a.87.87,0,0,1-.89.89.75.75,0,0,1-.8-.74.79.79,0,0,1,.44-.73c-.19-.25-.68-.25-1-.25-1.29,0-1.65,1.24-1.65,2.35s.38,2.28,1.69,2.28a1.4,1.4,0,0,0,1.56-1.41h.82a2.32,2.32,0,0,1-2.6,2.32,2.84,2.84,0,0,1-2.91-3.09A3,3,0,0,1,132,134.32Z"/><path class="cls-3" d="M138.21,134.31c2,0,2.82,1.43,2.82,3.32h-4.44c0,1.67.84,2.18,1.82,2.18a1.78,1.78,0,0,0,1.78-1.33H141a2.58,2.58,0,0,1-2.71,2.18,2.88,2.88,0,0,1-3.06-3.16A3,3,0,0,1,138.21,134.31Zm-1.58,2.54h2.93c0-.91-.33-1.77-1.39-1.77A1.59,1.59,0,0,0,136.63,136.85Z"/><path class="cls-5" d="M77.7,27.58a7.12,7.12,0,0,0,.8-.25c.65-.27.83-.66,1.52-.86.11,0,.24-.06.3,0s-.11.48-.24.65a2.41,2.41,0,0,1-2,.93c-.51,0-1-.19-1-.29S77.27,27.69,77.7,27.58Z"/><path class="cls-5" d="M79.21,53.27,81,53.11c.86-.09,1.11-.14,1.16,0s-.63.79-1.45,1.07a3.89,3.89,0,0,1-2.45,0c-.72-.21-1.5-.64-1.45-.82S77.67,53.38,79.21,53.27Z"/><path class="cls-5" d="M80.23,56l1.61.13c1,.08,1.17.09,1.19.18s-.7.64-1.49.76A2.9,2.9,0,0,1,79,56.21c0-.05-.41-.43-.32-.57S79.29,55.79,80.23,56Z"/><path class="cls-5" d="M72,52c-.6-.26-1.46-.76-2.65-1.34-.12-.06-.34-.16-.43-.08s.14.6.32.86A3.92,3.92,0,0,0,72.75,53c.38,0,1-.2,1-.38S73,52.46,72,52Z"/><path class="cls-5" d="M70.08,53.66c.71.14,1,.19,1,.31s-.77.59-1.55.62a2.8,2.8,0,0,1-2.17-1c-.14-.16-.23-.26-.19-.35S67.64,53.18,70.08,53.66Z"/><path class="cls-5" d="M69.5,92.78a3.94,3.94,0,0,0-1.69-.56c-.22,0-.43,0-.48.11-.12.26.68,1,1.45,1.35,1.14.59,2.49.68,2.59.42s-.45-.54-.75-.75A6.33,6.33,0,0,0,69.5,92.78Z"/><path class="cls-5" d="M65.92,96.71c-.43.15-.71.26-.7.39s1.26.54,2.4.37a4.47,4.47,0,0,0,2.56-1.34c.3-.29.29-.36.28-.39C70.31,95.33,67.33,96.22,65.92,96.71Z"/><path class="cls-5" d="M81.83,90c.17-.07.44-.19.57-.08s0,.66-.28,1a1.74,1.74,0,0,1-.86.53c-.84.28-2.3.54-2.41.22S79.79,91,81.83,90Z"/><path class="cls-5" d="M82.07,96.56c.78.38.77.47,1.67,1s1.44.65,1.43.9-.45.48-.81.54a2.06,2.06,0,0,1-1.44-.48c-1.26-.87-2.64-2.25-2.44-2.5S81.13,96.1,82.07,96.56Z"/><path class="cls-5" d="M71.55,34.75c-.43-.23-.89-.5-1.06-.35s0,.45,0,.53c.36,1,1.78,1.3,1.95,1.33.62.13,1.52.13,1.58-.1S73.45,35.81,71.55,34.75Z"/><path class="cls-5" d="M72.58,37.79c-1.21-.29-1.94-.66-2.06-.47s.06.23.15.35a2.24,2.24,0,0,0,1.3.81,3.67,3.67,0,0,0,2.29.05c.19-.07.42-.15.41-.25S73.82,38.09,72.58,37.79Z"/><path class="cls-5" d="M77.41,37.23a4.35,4.35,0,0,0,.86-.27,7.34,7.34,0,0,1,1-.47c.12,0,.23-.07.28,0s-.08.42-.22.61a1.73,1.73,0,0,1-.84.58,2.12,2.12,0,0,1-1.2.09c-.35-.07-.73-.25-.71-.36S76.91,37.34,77.41,37.23Z"/><path class="cls-5" d="M79.12,67.41A16.1,16.1,0,0,0,82,66.25c.51-.28.8-.5.9-.4s-.16.66-.44,1A3.45,3.45,0,0,1,80.93,68a3.73,3.73,0,0,1-1.58.27c-.55,0-1.24-.22-1.24-.41S78.45,67.62,79.12,67.41Z"/><path class="cls-5" d="M80,69.54c2.3.54,2.5.75,2.5.88s-.75.42-.81.43A2.94,2.94,0,0,1,80,70.67c-1.22-.46-2.85-1.33-2.74-1.6S78.21,69.12,80,69.54Z"/><path class="cls-5" d="M70.11,68.23c-.7-.36-1-.52-1.13-.4s0,.75.38,1.15a3.08,3.08,0,0,0,2.44.75c.37,0,.69,0,.72-.14S72,69.2,70.11,68.23Z"/><path class="cls-5" d="M68.47,70.85c-1.1-.25-3-.55-3.07-.21-.06.18.41.47.59.59,1.77,1.12,4.32.59,4.34.24C70.34,71.28,69.58,71.11,68.47,70.85Z"/><path class="cls-5" d="M68.24,73.1a9.22,9.22,0,0,0,2.25-.18c.56-.12.87-.24.94-.12s-.22.51-.51.75a3,3,0,0,1-3.24.12c-.31-.18-.69-.49-.63-.62S67.52,73.07,68.24,73.1Z"/><path class="cls-5" d="M82.8,93.72c.88,0,1.84,0,1.9.29s-.23.34-.4.46a2.45,2.45,0,0,1-1.31.37,3,3,0,0,1-2-.53c-.26-.2-.25-.28-.25-.3C80.8,93.71,82,93.72,82.8,93.72Z"/><path class="cls-5" d="M77.25,51.35c-.33.17-.41.27-.38.33s.92.17,1.6,0a3.1,3.1,0,0,0,1.46-1.06C80.76,49.55,77.25,51.35,77.25,51.35Z"/><path class="cls-5" d="M77.52,25.3a8,8,0,0,0,.75-.67c.16-.17.21-.23.31-.35l.15-.15c.21-.22.56-.57.71-.51s.1.4,0,.64A2.56,2.56,0,0,1,77.11,26s-.46,0-.49-.1S77,25.69,77.52,25.3Z"/><path class="cls-5" d="M72,22.69c-.18.06-.08.78-.07.82a2.44,2.44,0,0,0,.46,1.18,2.62,2.62,0,0,0,1.35.92s.63.17.7,0-.45-.32-1-.91c-.36-.43-.36-.64-1-1.52C72.25,22.79,72.12,22.67,72,22.69Z"/><path class="cls-5" d="M74.85,24.6c.17,0,.35-.32.4-.47a1.32,1.32,0,0,0,0-.8c-.08-.42-.27-1.07-.44-1s-.1.09-.14.2C74.43,23.22,74.52,24.56,74.85,24.6Z"/><path class="cls-5" d="M100.16,112.7c-.91-.11-2.07-.27-3.43-.53a62,62,0,0,1-6.63-1.79c-4.12-1.36-6-2.47-11.88-4.41-1.3-.43-1.94-.65-2.73-.87a47.17,47.17,0,0,0-12.37-1.77,45.54,45.54,0,0,0-14.86,2.45A46.15,46.15,0,0,0,37,111.44c3.48-.87,6.4-1.47,8.52-1.86A75.09,75.09,0,0,1,58,108l1.35,0a36.82,36.82,0,0,0-8.51,4.37c2.8-.71,5.15-1.19,6.85-1.51a61.56,61.56,0,0,1,10-1.3,41.31,41.31,0,0,1,6,.19c4.94.54,6,1.64,12.33,2.78a40.89,40.89,0,0,0,6,.77A37.4,37.4,0,0,0,100.16,112.7Z"/></svg>