<svg id="Layer_1" data-name="Layer 1" xmlns="http://www.w3.org/2000/svg" xmlns:xlink="http://www.w3.org/1999/xlink" viewBox="0 0 530 530"><defs><style>.cls-1{fill:url(#linear-gradient);}.cls-2{fill:url(#linear-gradient-2);}</style><linearGradient id="linear-gradient" x1="13.27" y1="212.9" x2="517.2" y2="212.9" gradientUnits="userSpaceOnUse"><stop offset="0" stop-color="#00c9cc"/><stop offset="1" stop-color="#009699"/></linearGradient><linearGradient id="linear-gradient-2" x1="12.8" y1="420.99" x2="367.17" y2="420.99" xlink:href="#linear-gradient"/></defs><title>Artboard 1</title><path class="cls-1" d="M517.2,264.76A264.35,264.35,0,0,0,252.85.41H121.39a108.12,108.12,0,0,0,0,216.24H258.57c112.67,0,204.34,91.67,204.34,204.34,0,1.46,0,2.94-.05,4.41C498.42,379.11,517.2,323.6,517.2,264.76Z"/><path class="cls-2" d="M121.39,529.59a108.6,108.6,0,0,1,0-217.2H258.57a108.6,108.6,0,0,1,0,217.2Z"/></svg>